<svg height="512pt" viewBox="0 0 512 512" width="512pt" xmlns="http://www.w3.org/2000/svg"><path d="m512 256c0 68.390625-26.628906 132.679688-74.980469 181.019531-3.699219 3.699219-7.53125 7.308594-11.371093 10.710938-46.679688 41.417969-106.886719 64.25-169.558594 64.269531h-.089844c-43.03125 0-85.28125-10.75-122.570312-31.121094l-87.480469 17.179688c-8.628907 0-17.007813-3.570313-22.988281-9.808594-7.632813-7.988281-10.582032-19.109375-7.910157-29.769531l18.789063-75.070313c-22.160156-38.519531-33.839844-82.429687-33.839844-127.410156 0-62.679688 22.828125-122.929688 64.28125-169.648438 3.390625-3.832031 6.988281-7.652343 10.707031-11.371093 48.351563-48.351563 112.640625-74.980469 181.011719-74.980469h.089844c68.351562.0195312 132.601562 26.648438 180.929687 74.980469 48.351563 48.359375 74.980469 112.640625 74.980469 181.019531zm0 0" fill="#6ed945"/><path d="m512 256c0 68.390625-26.628906 132.679688-74.980469 181.019531-3.699219 3.699219-7.53125 7.308594-11.371093 10.710938-46.679688 41.417969-106.886719 64.25-169.558594 64.269531v-512c68.351562.0195312 132.601562 26.648438 180.929687 74.980469 48.351563 48.359375 74.980469 112.640625 74.980469 181.019531zm0 0" fill="#54c12c"/><path d="m371.71875 193.429688h-30.648438l12.558594-44.859376c2.230469-7.980468-2.417968-16.261718-10.398437-18.492187-7.96875-2.238281-16.25 2.421875-18.492188 10.402344l-14.828125 52.949219h-78.789062l12.507812-44.679688c2.230469-7.980469-2.417968-16.261719-10.398437-18.488281-7.96875-2.242188-16.25 2.417969-18.492188 10.398437l-14.769531 52.769532h-42.546875c-8.28125 0-15 6.71875-15 15 0 8.289062 6.71875 15 15 15h34.148437l-15.601562 55.710937h-36.546875c-8.28125 0-15 6.71875-15 15s6.71875 15 15 15h28.148437l-12.832031 45.820313c-2.226562 7.96875 2.421875 16.25 10.402344 18.480468 9.058594 2.1875 16.640625-3.769531 18.488281-10.402344l15.089844-53.898437h78.800781l-12.78125 45.640625c-2.226562 7.96875 2.421875 16.25 10.402344 18.480469 9.769531 2.367187 16.640625-3.773438 18.488281-10.402344l15.042969-53.71875h45.046875c8.28125 0 15-6.71875 15-15s-6.71875-15-15-15h-36.648438l15.601563-55.710937h39.046875c8.28125 0 15-6.710938 15-15 0-8.28125-6.71875-15-15-15zm-85.796875 85.710937h-78.800781l15.597656-55.710937h78.800781zm0 0" fill="#fff"/><path d="m386.71875 208.429688c0 8.289062-6.71875 15-15 15h-39.046875l-15.601563 55.710937h36.648438c8.28125 0 15 6.71875 15 15s-6.71875 15-15 15h-45.046875l-15.042969 53.71875c-1.847656 6.628906-8.71875 12.769531-18.488281 10.402344-7.980469-2.230469-12.628906-10.511719-10.402344-18.480469l12.78125-45.640625h-21.429687v-30h29.832031l15.597656-55.710937h-45.429687v-30h53.820312l14.828125-52.949219c2.242188-7.980469 10.523438-12.640625 18.492188-10.402344 7.980469 2.230469 12.628906 10.511719 10.398437 18.492187l-12.558594 44.859376h30.648438c8.28125 0 15 6.71875 15 15zm0 0" fill="#ddebf0"/></svg>