<svg id="Layer_1" enable-background="new 0 0 512 512" fill="#ffffff" viewBox="0 0 512 512" xmlns="http://www.w3.org/2000/svg"><g><g><path d="m58.018 255.787c7.747 7.748 15.91 13.601 24.325 17.449.578 5.9 1.452 11.758 2.618 17.532.719 3.559 3.848 6.016 7.344 6.016.492 0 .992-.049 1.494-.15 4.06-.821 6.686-4.778 5.866-8.838-2.099-10.386-3.163-21.076-3.163-31.772 0-87.957 71.551-159.515 159.5-159.515 55.909 0 108.446 29.874 137.109 77.964 2.121 3.558 6.723 4.723 10.283 2.602 3.558-2.121 4.723-6.725 2.602-10.284-15.206-25.511-36.814-46.877-62.491-61.787-26.469-15.372-56.726-23.496-87.503-23.496-60.618 0-114.115 31.072-145.405 78.126-16.583-7.215-33.296-9.801-42.36-10.718-9.986-1.01-27.655-1.786-33.797 4.355-8.816 8.816-3.49 41.048-2.854 44.695 2.475 14.195 9.203 40.585 26.432 57.821zm-12.711-91.685c7.118-2.009 34.096-1.065 57.448 8.509-1.557 2.849-3.036 5.746-4.436 8.687-1.003-.718-2.198-1.198-3.51-1.348-4.107-.473-7.832 2.488-8.3 6.604l-.837 7.351-12.818-12.82c-2.928-2.929-7.677-2.929-10.606 0s-2.929 7.678 0 10.607l12.819 12.82-7.351.837c-4.116.469-7.072 4.185-6.603 8.301.436 3.828 3.68 6.652 7.442 6.652.283 0 .57-.016.858-.049l16.17-1.842c-2.65 12.018-4.057 24.497-4.08 37.295-4.36-2.798-8.665-6.315-12.877-10.527-13.659-13.665-19.521-35.482-21.8-47.27-3.323-17.183-2.562-29.776-1.519-33.807z"/><path d="m429.848 271.189c.434-5.039.652-10.111.652-15.166 0-20.038-3.369-39.689-10.014-58.405-1.386-3.904-5.673-5.943-9.577-4.559-3.904 1.386-5.944 5.674-4.559 9.578 6.071 17.101 9.15 35.063 9.15 53.386 0 5.978-.334 11.98-.995 17.906-14.691 3.432-35.128 10.501-49.339 24.714-14.167 14.168-22.052 29.926-22.801 45.569-.59 12.316 3.338 24.291 11.163 34.386l-10.641 10.642c-.37.37-.693.769-.97 1.19-25.493 16.312-55.26 25.107-85.917 25.107-64.77 0-122.637-38.67-147.424-98.517-1.585-3.827-5.972-5.644-9.799-4.059s-5.644 5.973-4.059 9.8c13.051 31.511 34.9 58.348 63.185 77.61 28.981 19.736 62.903 30.168 98.097 30.168 40.444 0 79.473-13.993 110.598-39.526 8.872 6.148 19.025 9.415 29.501 9.415.804 0 1.611-.019 2.418-.058 15.642-.75 31.398-8.635 45.565-22.803 17.232-17.233 23.962-43.622 26.44-57.818.636-3.646 5.964-35.877-2.854-44.695-6.695-6.696-26.893-5.235-37.82-3.865zm25.435 48.503c-2.279 11.788-8.144 33.604-21.806 47.268-11.486 11.487-23.822 17.859-35.676 18.426-8.206.385-16.028-1.977-22.954-6.893l12.041-12.042 25.759 2.72c.268.028.533.042.797.042 3.788 0 7.042-2.862 7.449-6.714.435-4.12-2.552-7.812-6.671-8.247l-13.691-1.446 12.956-12.957 19.207 2.188c.289.033.574.049.858.049 3.762 0 7.007-2.825 7.442-6.652.469-4.116-2.487-7.832-6.603-8.301l-7.351-.837 12.818-12.82c2.929-2.929 2.929-7.678 0-10.607s-7.678-2.929-10.606 0l-12.818 12.82-.837-7.351c-.468-4.116-4.184-7.077-8.3-6.604-4.116.469-7.072 4.185-6.603 8.301l2.187 19.208-12.957 12.957-1.445-13.692c-.435-4.12-4.128-7.106-8.246-6.672-4.119.435-7.106 4.127-6.671 8.247l2.719 25.761-12.045 12.046c-12.188-17.138-8.104-38.997 11.536-58.64 13.663-13.664 35.476-19.529 47.264-21.808 9.366-1.812 17.367-2.409 23.362-2.409 4.975 0 8.568.412 10.411.883 1.039 4.064 1.789 16.637-1.526 33.776z"/><path d="m199.171 382.822c1.858 1.14 3.942 1.701 6.016 1.701 2.646 0 5.276-.914 7.406-2.705l114.31-96.181c2.368-1.992 3.851-4.905 4.069-7.992s-.84-6.18-2.905-8.486l-40.577-45.322 22.239-81.782c1.334-4.903-.655-10.023-4.948-12.741-4.294-2.717-9.772-2.323-13.633.98l-106.124 90.815c-4.537 3.882-5.333 10.701-1.813 15.526l31.783 43.54-21.014 90.23c-1.124 4.832.961 9.822 5.191 12.417zm30.798-100.806c.76-3.263.063-6.687-1.913-9.393l-30.819-42.22 95.04-81.331-19.759 72.662c-1.027 3.778-.081 7.775 2.531 10.693l39.439 44.051-103.513 87.097z"/><path d="m390.467 456.119c-40.774 27.463-87.568 40.889-134.152 40.887-62.278-.002-124.173-24.006-170.725-70.557-46.687-46.686-71.742-108.761-70.55-174.79.075-4.141-3.222-7.56-7.363-7.634-4.095-.097-7.559 3.221-7.634 7.364-.614 34.027 5.384 67.264 17.829 98.787 12.885 32.639 32.1 61.869 57.112 86.882 49.453 49.452 115.178 74.947 181.342 74.942 49.478-.003 99.21-14.267 142.519-43.438 3.436-2.314 4.345-6.975 2.031-10.411-2.313-3.437-6.974-4.347-10.409-2.032z"/><path d="m511.999 251.39c-1.195-66.624-27.809-129.272-74.94-176.403-47.549-47.548-110.759-74.172-177.986-74.969-63.961-.75-124.864 21.924-172.494 64.056l-1.869-24.704c-.312-4.13-3.898-7.229-8.044-6.913-4.13.313-7.225 3.914-6.913 8.045l3.052 40.352c.279 3.696 3.217 6.634 6.913 6.913l40.353 3.052c.192.015.383.022.573.022 3.885 0 7.173-2.997 7.471-6.936.313-4.131-2.783-7.733-6.913-8.045l-23.312-1.763c95.56-83.421 237.896-79.167 328.562 11.498 44.37 44.369 69.425 103.344 70.549 166.063.074 4.097 3.417 7.366 7.496 7.366.046 0 .092 0 .137-.001 4.142-.074 7.439-3.492 7.365-7.633z"/><path d="m448.562 421.866c-.279-3.696-3.217-6.634-6.913-6.913l-40.352-3.052c-4.125-.307-7.731 2.783-8.044 6.914s2.783 7.733 6.913 8.045l24.03 1.818c-2.972 2.896-6.03 5.729-9.119 8.447-3.109 2.737-3.412 7.476-.676 10.586 1.483 1.685 3.553 2.546 5.634 2.546 1.76 0 3.527-.616 4.952-1.869 3.338-2.938 6.642-6.001 9.849-9.132l1.823 24.096c.298 3.938 3.585 6.935 7.471 6.935.189 0 .381-.007.574-.022 4.13-.313 7.225-3.914 6.913-8.045z"/></g></g></svg>